<?xml version="1.0" standalone="no"?>
<!DOCTYPE svg PUBLIC "-//W3C//DTD SVG 20010904//EN"
 "http://www.w3.org/TR/2001/REC-SVG-20010904/DTD/svg10.dtd">
<svg version="1.0" xmlns="http://www.w3.org/2000/svg"
 width="300.000000pt" height="300.000000pt" viewBox="0 0 300.000000 300.000000"
 preserveAspectRatio="xMidYMid meet">

<g transform="translate(0.000000,300.000000) scale(0.100000,-0.100000)"
fill="#000000" stroke="none">
<path d="M696 2654 c-39 -38 -2 -115 75 -154 20 -11 72 -29 113 -40 70 -20 95
-21 309 -16 127 3 277 10 332 15 55 6 150 13 210 17 102 6 111 5 128 -14 11
-12 17 -31 15 -49 l-3 -28 -116 -5 c-108 -5 -119 -7 -159 -35 l-43 -30 111 -3
c101 -2 112 -4 112 -21 0 -13 10 -20 31 -25 18 -3 28 -10 24 -17 -4 -6 -13 -8
-21 -5 -11 4 -14 -6 -14 -43 0 -29 5 -51 12 -53 7 -3 -4 -22 -26 -46 -21 -23
-44 -61 -51 -84 -8 -25 -14 -34 -14 -22 -2 38 -57 61 -68 27 -3 -7 3 -10 15
-6 11 2 22 0 26 -5 3 -5 -8 -12 -25 -16 -29 -5 -31 -9 -26 -35 6 -26 1 -33
-51 -72 -41 -31 -65 -43 -88 -42 -43 1 -54 9 -54 38 0 22 3 24 32 18 23 -5 34
-2 45 12 15 22 18 125 3 125 -6 0 -4 13 5 30 l16 30 -63 0 c-62 0 -64 -1 -81
-33 -16 -29 -23 -33 -53 -31 l-34 3 0 -49 c0 -58 17 -68 22 -13 2 26 8 39 20
41 34 7 -13 -76 -79 -138 -45 -42 -68 -74 -82 -110 -11 -28 -31 -66 -45 -85
-32 -41 -156 -104 -240 -121 -191 -38 -252 -56 -286 -83 -55 -43 -81 -107 -90
-219 -5 -53 -14 -128 -20 -167 -17 -95 -7 -390 15 -463 9 -29 30 -68 46 -87
48 -55 100 -65 323 -65 207 0 296 13 481 70 50 16 106 31 125 35 133 24 171
31 340 55 36 6 119 14 185 19 104 7 130 6 194 -10 137 -35 173 -25 196 54 24
84 55 253 67 367 15 154 21 605 8 630 -12 23 -64 28 -77 8 -4 -7 -11 -114 -14
-238 -8 -268 -20 -400 -49 -546 -38 -191 -40 -195 -131 -163 -29 11 -70 19
-91 19 -41 0 -45 5 -23 34 24 31 18 97 -15 177 -38 91 -116 321 -125 369 -3
19 -24 87 -46 151 -21 64 -39 123 -39 131 0 8 22 33 49 56 45 38 121 136 196
251 29 45 30 45 33 19 5 -41 20 -34 24 10 2 25 8 37 18 37 10 0 16 -12 18 -37
2 -21 7 -38 13 -38 11 0 12 70 0 89 -5 8 -18 12 -30 8 -12 -3 -21 -2 -21 1 0
4 18 36 40 72 52 85 54 128 7 175 -37 37 -116 65 -183 65 -62 0 -74 17 -74
101 0 65 -2 73 -30 101 l-30 30 -173 -6 c-94 -3 -215 -10 -267 -16 -52 -6
-179 -13 -282 -16 -253 -8 -333 10 -436 98 -38 32 -45 34 -66 12z m1386 -409
c9 -4 13 -17 10 -38 -2 -22 2 -38 12 -46 14 -11 12 -18 -13 -63 -16 -28 -40
-55 -52 -62 -17 -8 -25 -22 -27 -46 -4 -43 -87 -154 -169 -226 -85 -75 -89
-76 -151 -50 -29 12 -57 27 -63 33 -14 14 68 86 140 120 70 33 109 73 113 115
4 48 32 44 36 -4 4 -47 22 -50 22 -4 0 47 -9 66 -31 66 -19 0 -19 1 -3 33 9
17 25 38 35 45 12 9 19 28 21 64 2 28 8 53 14 55 6 2 9 -7 6 -25 -2 -18 2 -35
13 -45 18 -19 50 -22 60 -7 3 6 -5 10 -19 10 -14 0 -28 5 -31 10 -4 6 8 10 29
10 40 0 40 -1 26 34 -9 26 -4 31 22 21z m-42 -25 c0 -5 -9 -10 -21 -10 -11 0
-17 5 -14 10 3 6 13 10 21 10 8 0 14 -4 14 -10z m-200 -17 c0 -10 -5 -25 -10
-33 -7 -11 -10 -7 -10 18 0 17 5 32 10 32 6 0 10 -8 10 -17z m300 -3 c0 -21
-15 -27 -25 -10 -7 12 2 30 16 30 5 0 9 -9 9 -20z m-620 -209 c0 -24 -18 -37
-32 -23 -8 8 -7 16 2 27 17 21 30 19 30 -4z m175 -21 c-3 -5 -13 -10 -21 -10
-8 0 -14 5 -14 10 0 6 9 10 21 10 11 0 17 -4 14 -10z m-180 -39 c-8 -13 -42
-14 -50 -2 -3 5 7 11 22 13 33 4 37 3 28 -11z m-90 -236 c39 -9 90 -26 115
-38 l45 -21 -35 -6 c-19 -4 -51 -15 -71 -23 -57 -25 -161 -39 -198 -26 -17 6
-31 15 -31 20 0 5 14 34 31 65 26 45 36 55 53 51 12 -3 53 -12 91 -22z m407
-240 c31 -91 31 -114 1 -64 -12 19 -40 52 -62 74 -23 21 -41 42 -41 46 0 9 43
28 60 26 8 -1 25 -35 42 -82z m-175 -55 c47 -21 103 -96 103 -137 0 -35 -40
-69 -101 -87 -70 -21 -83 -20 -169 9 -106 36 -234 36 -315 -1 l-58 -27 -51 22
c-61 25 -179 29 -229 7 -46 -20 -87 -67 -94 -109 -5 -32 -1 -41 30 -72 33 -33
39 -35 101 -35 42 0 85 7 118 20 29 11 61 20 71 20 20 0 38 -36 56 -116 8 -34
23 -62 42 -80 25 -24 39 -29 97 -32 105 -6 454 28 490 47 11 6 32 25 47 43
l27 32 31 -36 c38 -43 77 -64 154 -82 l58 -13 -70 -7 c-38 -4 -97 -11 -130
-16 -33 -5 -94 -14 -135 -20 -157 -24 -298 -53 -390 -80 -173 -52 -284 -70
-422 -70 -142 0 -221 13 -249 41 -45 45 -72 265 -49 409 6 41 15 120 20 175 9
108 19 143 45 165 15 12 19 11 35 -10 18 -23 26 -25 130 -28 104 -4 119 -1
228 32 103 31 136 36 282 44 247 13 251 13 297 -8z m267 -237 c10 -32 33 -98
51 -148 20 -55 29 -94 24 -100 -15 -15 -42 7 -64 53 -25 51 -68 97 -106 112
-16 7 -29 14 -29 16 0 2 14 23 30 46 17 22 30 45 30 49 0 4 5 20 11 36 9 25
12 26 23 11 7 -9 20 -43 30 -75z m-455 -88 c86 -29 130 -31 213 -9 33 8 62 14
63 12 10 -10 -41 -132 -60 -144 -26 -17 -126 -32 -284 -44 -115 -8 -147 -4
-168 21 -17 21 -46 128 -39 145 3 8 25 24 48 35 54 25 122 20 227 -16z"/>
<path d="M1970 2070 c0 -5 5 -10 10 -10 6 0 10 5 10 10 0 6 -4 10 -10 10 -5 0
-10 -4 -10 -10z"/>
<path d="M1970 1990 c0 -27 5 -50 10 -50 6 0 10 23 10 50 0 28 -4 50 -10 50
-5 0 -10 -22 -10 -50z"/>
<path d="M810 2220 c0 -73 17 -98 22 -32 2 25 8 37 18 37 10 0 16 -12 18 -37
2 -21 7 -38 13 -38 11 0 12 70 0 89 -5 8 -18 12 -30 8 -17 -4 -21 -1 -21 19 0
13 -4 24 -10 24 -6 0 -10 -30 -10 -70z"/>
<path d="M920 2280 c0 -5 5 -10 10 -10 6 0 10 5 10 10 0 6 -4 10 -10 10 -5 0
-10 -4 -10 -10z"/>
<path d="M1633 2282 c-14 -9 -17 -27 -15 -89 2 -54 22 -57 22 -3 0 29 4 40 15
40 21 0 19 20 -2 20 -17 1 -17 1 0 14 9 7 17 16 17 20 0 8 -22 7 -37 -2z"/>
<path d="M700 2265 c-18 -21 -3 -47 31 -55 37 -9 30 -35 -9 -35 -17 0 -31 -4
-29 -10 2 -5 19 -10 37 -10 60 0 69 60 10 72 -37 7 -34 28 4 28 14 -1 25 4 23
10 -6 17 -53 17 -67 0z"/>
<path d="M968 2262 c-3 -9 -2 -38 1 -62 5 -37 10 -46 29 -48 12 -2 22 1 22 7
0 6 -7 11 -15 11 -10 0 -15 10 -15 30 0 20 5 30 15 30 8 0 15 5 15 10 0 6 -7
10 -15 10 -8 0 -15 7 -15 15 0 21 -17 19 -22 -3z"/>
<path d="M1038 2262 c-3 -9 -2 -38 1 -62 5 -37 10 -46 29 -48 12 -2 22 1 22 7
0 6 -7 11 -15 11 -10 0 -15 10 -15 30 0 20 5 30 15 30 8 0 15 5 15 10 0 6 -7
10 -15 10 -8 0 -15 7 -15 15 0 21 -17 19 -22 -3z"/>
<path d="M1250 2215 c0 -75 17 -89 22 -17 l3 47 25 -45 c14 -25 33 -46 43 -48
15 -3 17 5 17 62 0 37 -4 66 -10 66 -5 0 -10 -21 -10 -46 0 -52 -11 -51 -40 7
-32 61 -50 52 -50 -26z"/>
<path d="M920 2200 c0 -27 5 -50 10 -50 6 0 10 23 10 50 0 28 -4 50 -10 50 -5
0 -10 -22 -10 -50z"/>
<path d="M1100 2245 c0 -2 10 -25 22 -51 22 -43 22 -46 5 -58 -21 -16 -22 -26
-2 -26 9 0 27 28 45 66 34 75 33 74 21 74 -5 0 -14 -13 -21 -30 -7 -16 -16
-30 -20 -30 -4 0 -13 14 -20 30 -10 25 -30 42 -30 25z"/>
<path d="M1406 2234 c-9 -8 -16 -24 -16 -34 0 -37 58 -68 75 -40 3 6 -5 10
-19 10 -14 0 -28 5 -31 10 -4 6 8 10 30 10 33 0 36 2 29 23 -12 39 -42 48 -68
21z m49 -14 c4 -6 -5 -10 -20 -10 -15 0 -24 4 -20 10 3 6 12 10 20 10 8 0 17
-4 20 -10z"/>
<path d="M1516 2234 c-9 -8 -16 -24 -16 -34 0 -20 25 -50 41 -50 24 0 49 23
49 45 0 26 -24 55 -45 55 -7 0 -21 -7 -29 -16z m49 -34 c0 -29 -32 -41 -41
-16 -9 24 4 48 23 44 12 -2 18 -12 18 -28z"/>
<path d="M1696 2234 c-9 -8 -16 -24 -16 -34 0 -20 25 -50 41 -50 24 0 49 23
49 45 0 26 -24 55 -45 55 -7 0 -21 -7 -29 -16z m49 -34 c0 -29 -32 -41 -41
-16 -9 24 4 48 23 44 12 -2 18 -12 18 -28z"/>
<path d="M700 2070 c0 -5 5 -10 10 -10 6 0 10 5 10 10 0 6 -4 10 -10 10 -5 0
-10 -4 -10 -10z"/>
<path d="M1110 2010 c0 -40 4 -70 10 -70 6 0 10 30 10 70 0 40 -4 70 -10 70
-6 0 -10 -30 -10 -70z"/>
<path d="M1160 2010 c0 -40 4 -70 10 -70 6 0 10 30 10 70 0 40 -4 70 -10 70
-6 0 -10 -30 -10 -70z"/>
<path d="M938 2052 c-3 -9 -2 -38 1 -62 5 -37 10 -46 29 -48 12 -2 22 1 22 7
0 6 -7 11 -15 11 -10 0 -15 10 -15 30 0 20 5 30 15 30 8 0 15 5 15 10 0 6 -7
10 -15 10 -8 0 -15 7 -15 15 0 21 -17 19 -22 -3z"/>
<path d="M700 1990 c0 -27 5 -50 10 -50 6 0 10 23 10 50 0 28 -4 50 -10 50 -5
0 -10 -22 -10 -50z"/>
<path d="M750 1988 c0 -56 17 -65 22 -10 2 25 8 37 18 37 10 0 16 -12 18 -37
2 -21 7 -38 13 -38 11 0 12 70 1 87 -4 6 -22 11 -40 11 -32 -1 -32 -2 -32 -50z"/>
<path d="M857 2034 c-14 -15 -6 -35 18 -46 14 -6 25 -16 25 -21 0 -5 -11 -7
-25 -5 -14 3 -25 2 -25 -3 0 -14 21 -21 46 -15 33 9 32 43 -1 56 -32 12 -32
24 0 17 16 -3 24 0 22 7 -4 13 -49 20 -60 10z"/>
<path d="M1017 2033 c-13 -13 -7 -21 12 -16 10 3 21 0 25 -5 3 -5 -8 -12 -25
-16 -25 -5 -30 -10 -27 -28 2 -19 10 -23 41 -25 36 -1 37 0 37 36 0 20 -5 42
-12 49 -13 13 -41 16 -51 5z m38 -63 c-3 -5 -13 -10 -21 -10 -8 0 -14 5 -14
10 0 6 9 10 21 10 11 0 17 -4 14 -10z"/>
<path d="M1216 2024 c-36 -35 -6 -87 47 -82 17 2 32 8 34 14 2 6 -10 8 -31 6
-18 -2 -37 1 -40 7 -5 7 7 11 33 11 33 0 41 4 41 18 0 40 -54 57 -84 26z m59
-14 c4 -6 -7 -10 -25 -10 -18 0 -29 4 -25 10 3 6 15 10 25 10 10 0 22 -4 25
-10z"/>
<path d="M1570 1988 c0 -26 5 -48 10 -48 6 0 10 16 10 36 0 27 5 37 20 41 30
8 24 22 -10 21 -29 -1 -30 -3 -30 -50z"/>
<path d="M2286 2024 c-36 -35 -6 -87 47 -82 17 2 32 8 34 14 2 6 -10 8 -31 6
-18 -2 -37 1 -40 7 -5 7 7 11 33 11 33 0 41 4 41 18 0 40 -54 57 -84 26z m59
-14 c4 -6 -7 -10 -25 -10 -18 0 -29 4 -25 10 3 6 15 10 25 10 10 0 22 -4 25
-10z"/>
<path d="M2390 1988 c0 -26 5 -48 10 -48 6 0 10 16 10 36 0 27 5 37 20 41 30
8 24 22 -10 21 -29 -1 -30 -3 -30 -50z"/>
<path d="M2476 2024 c-36 -35 -6 -87 47 -82 17 2 32 8 34 14 2 6 -10 8 -31 6
-18 -2 -37 1 -40 7 -5 7 7 11 33 11 33 0 41 4 41 18 0 40 -54 57 -84 26z m59
-14 c4 -6 -7 -10 -25 -10 -18 0 -29 4 -25 10 3 6 15 10 25 10 10 0 22 -4 25
-10z"/>
</g>
</svg>
