<?xml version="1.0" encoding="UTF-8" standalone="no"?>
<!-- Created with Inkscape (http://www.inkscape.org/) -->

<svg
   width="127.99994"
   height="128"
   viewBox="0 0 33.866651 33.866665"
   version="1.1"
   id="svg5"
   xml:space="preserve"
   sodipodi:docname="logo.svg"
   inkscape:version="1.2.1 (9c6d41e410, 2022-07-14)"
   xmlns:inkscape="http://www.inkscape.org/namespaces/inkscape"
   xmlns:sodipodi="http://sodipodi.sourceforge.net/DTD/sodipodi-0.dtd"
   xmlns="http://www.w3.org/2000/svg"
   xmlns:svg="http://www.w3.org/2000/svg"><sodipodi:namedview
     id="namedview7"
     pagecolor="#505050"
     bordercolor="#eeeeee"
     borderopacity="1"
     inkscape:showpageshadow="0"
     inkscape:pageopacity="0"
     inkscape:pagecheckerboard="0"
     inkscape:deskcolor="#505050"
     inkscape:document-units="mm"
     showgrid="false"
     inkscape:zoom="8.4876225"
     inkscape:cx="63.563148"
     inkscape:cy="60.440954"
     inkscape:window-width="2560"
     inkscape:window-height="1377"
     inkscape:window-x="-8"
     inkscape:window-y="-8"
     inkscape:window-maximized="1"
     inkscape:current-layer="layer1" /><defs
     id="defs2" /><g
     inkscape:label="Ebene 1"
     inkscape:groupmode="layer"
     id="layer1"
     transform="translate(-46.344998,-198.939)"><g
       id="g357"
       transform="translate(8.7588908e-6,0.92609333)"><path
         id="path280"
         style="fill:#fdfbfb;stroke-width:0.264583"
         d="m 59.574147,223.41291 v -1.98438 h 0.92604 0.92604 v 1.98438 1.98437 h -0.92604 -0.92604 z m 5.55625,0 v -1.98438 h 0.92604 0.92604 v 1.98438 1.98437 h -0.92604 -0.92604 z m -9.260415,-7.54063 v -1.85208 h 0.926041 0.926042 v 1.85208 1.85209 h -0.926042 -0.926041 z m 12.964585,0 v -1.85208 h 0.92604 0.92604 v 1.85208 1.85209 h -0.92604 -0.92604 z" /><path
         style="fill:#e5f1f0;stroke-width:0.264583"
         d="m 48.197065,203.56916 v -0.92604 h 0.926042 0.926041 v 0.92604 0.92604 h -0.926041 -0.926042 z m 3.704167,-1.85209 v -0.92604 h 4.762499 4.762496 v 0.92604 0.92605 h -4.762496 -4.762499 z"
         id="path255" /><path
         style="fill:#d4dfde;stroke-width:0.264583"
         d="m 48.197065,207.40562 v -1.05834 h 0.926042 0.926041 v 1.05834 1.05833 h -0.926041 -0.926042 z m 0,-5.68855 v -0.92604 h 1.852083 1.852084 v 0.92604 0.92605 h -1.852084 -1.852083 z m 13.229162,0 v -0.92604 h 8.46667 8.46667 v 0.92604 0.92605 h -8.46667 -8.46667 z"
         id="path253" /><path
         style="fill:#e6d8d2;stroke-width:0.264583"
         d="m 61.426227,224.47124 v -0.92604 h 1.85209 1.85208 v 0.92604 0.92604 h -1.85208 -1.85209 z m -5.556245,-5.82083 v -0.92604 h 0.926041 0.926042 v 0.92604 0.92604 h -0.926042 -0.926041 z m 12.964585,0 v -0.92604 h 0.92604 0.92604 v 0.92604 0.92604 h -0.92604 -0.92604 z m -11.112502,-3.70417 v -0.92604 h 0.926042 0.92604 v 0.92604 0.92604 h -0.92604 -0.926042 z m 9.260412,0 v -0.92604 h 0.92605 0.92604 v 0.92604 0.92604 h -0.92604 -0.92605 z m -9.260412,-7.54062 v -1.05834 h 0.926042 0.92604 v 1.05834 1.05833 h -0.92604 -0.926042 z m 9.260412,0 v -1.05834 h 0.92605 0.92604 v 1.05834 1.05833 h -0.92604 -0.92605 z"
         id="path251" /><path
         style="fill:#c6d0d0;stroke-width:0.264583"
         d="m 72.803317,216.79832 v -0.92604 h 1.85208 1.85208 v 0.92604 0.92605 h -1.85208 -1.85208 z m -20.902085,-9.3927 v -1.05834 H 50.97519 50.049148 v -0.92604 -0.92604 h 0.926042 0.926042 v 0.92604 0.92604 h 0.926041 0.926042 v 1.05834 1.05833 h -0.926042 -0.926041 z m 9.524995,-2.91042 v -1.85208 h 0.92605 0.92604 v 0.92604 0.92604 h 0.92604 0.92604 v 0.92604 0.92604 h -1.85208 -1.85209 z m -7.672912,-0.92604 v -0.92604 h 1.984375 1.984375 v 0.92604 0.92604 H 55.73769 53.753315 Z"
         id="path249" /><path
         style="fill:#bcc6c6;stroke-width:0.264583"
         d="m 48.197065,216.93062 v -8.46667 h 0.926042 0.926041 v -1.05833 -1.05834 h -0.926041 -0.926042 v -0.92604 -0.92604 h 0.926042 0.926041 v 0.92604 0.92604 h 0.926042 0.926042 v -1.85208 -1.85208 h 0.926041 0.926042 v 0.92604 0.92604 h 1.058333 1.058334 v 0.92604 0.92604 h -1.984375 -1.984375 v 1.05834 1.05833 h 0.926041 0.926042 v 2.77812 2.77813 h -0.926042 -0.926041 v 0.92604 0.92604 h 0.926041 0.926042 v 0.92604 0.92605 h -1.852083 -1.852084 v 3.83645 3.83646 h -0.926041 -0.926042 z m 26.458332,-1.98438 v -0.92604 h -0.92604 -0.92604 v -3.83646 -3.83646 h -1.05834 -1.05833 v -0.92604 -0.92604 h -0.92604 -0.92604 v -0.92604 -0.92604 h 2.91041 2.91042 v 0.92604 0.92604 h 0.92604 0.92604 v -0.92604 -0.92604 h 0.92605 0.92604 v 1.85208 1.85208 h -0.92604 -0.92605 v 1.05834 1.05833 h 0.92605 0.92604 v 0.92604 0.92604 h -0.92604 -0.92605 v 2.77813 2.77812 h -0.92604 -0.92604 z m -11.37708,-11.37708 v -0.92604 h 0.92604 0.92604 v 0.92604 0.92604 h -0.92604 -0.92604 z"
         id="path247" /><path
         style="fill:#c6a2b8;stroke-width:0.264583"
         d="m 57.722065,209.38999 v -0.92604 h 0.926042 0.92604 v 0.92604 0.92604 h -0.92604 -0.926042 z m 9.260412,0 v -0.92604 h 0.92605 0.92604 v 0.92604 0.92604 h -0.92604 -0.92605 z"
         id="path245" /><path
         style="fill:#a9afb2;stroke-width:0.264583"
         d="m 48.197065,227.24937 v -1.85209 h 0.926042 0.926041 v -3.83646 -3.83645 h 0.926042 0.926042 v 0.92604 0.92604 h 0.926041 0.926042 v 1.98437 1.98438 h 1.058333 1.058334 v 0.92604 0.92604 h 1.852083 1.852082 v 0.92604 0.92605 h 3.70417 3.70416 v -0.92605 -0.92604 h 1.85209 1.85208 v -0.92604 -0.92604 h 1.05833 1.05834 v -1.98438 -1.98437 h 0.92604 0.92604 v -0.92604 -0.92604 h 0.92604 0.92604 v -3.70417 -3.70417 h 0.92605 0.92604 v 9.39271 9.39271 h -0.92604 -0.92605 v -1.85208 -1.85209 h -0.92604 -0.92604 v 1.85209 1.85208 H 63.278317 51.901232 v -1.85208 -1.85209 H 50.97519 50.049148 v 1.85209 1.85208 h -0.926041 -0.926042 z m 28.310412,-19.84375 v -1.05834 h 0.92605 0.92604 v 1.05834 1.05833 h -0.92604 -0.92605 z m -26.458329,-3.83646 v -0.92604 h 0.926042 0.926042 v 0.92604 0.92604 H 50.97519 50.049148 Z m 24.606249,0 v -0.92604 h 0.92604 0.92604 v 0.92604 0.92604 h -0.92604 -0.92604 z"
         id="path243" /><path
         style="fill:#9fa4a8;stroke-width:0.264583"
         d="m 50.049148,228.17541 v -0.92604 h 0.926042 0.926042 v 0.92604 0.92604 H 50.97519 50.049148 Z m 24.606249,0 v -0.92604 h 0.92604 0.92604 v 0.92604 0.92604 h -0.92604 -0.92604 z"
         id="path241" /><path
         style="fill:#8a8d93;stroke-width:0.264583"
         d="m 46.344982,208.33166 v -7.54063 h 0.926042 0.926041 v -0.92604 -0.92604 h 15.081252 15.08125 v 0.92604 0.92604 h 0.92604 0.92604 v 7.54063 7.54062 h -0.92604 -0.92604 v -7.54062 -7.54063 H 63.278317 48.197065 v 7.54063 7.54062 h -0.926041 -0.926042 z"
         id="path239" /><path
         style="fill:#e58b36;stroke-width:0.264583"
         d="m 61.426227,213.09416 v -2.77813 h 1.85209 1.85208 v 1.85209 1.85208 h -0.92604 -0.92604 v 0.92604 0.92604 h -0.92604 -0.92605 z"
         id="path237" /><path
         style="fill:#d6732e;stroke-width:0.264583"
         d="m 55.869982,220.50249 v -0.92604 h -1.058334 -1.058333 v -0.92604 -0.92604 h 1.058333 1.058334 v 0.92604 0.92604 h 1.852083 1.852082 v -2.77813 -2.77812 h -1.852082 -1.852083 v 0.92604 0.92604 h -1.058334 -1.058333 v -0.92604 -0.92604 h 1.058333 1.058334 v -0.92604 -0.92604 h 1.852083 1.852082 v -0.92605 -0.92604 h 0.92604 0.92604 v 2.77813 2.77812 h 0.92605 0.92604 v -0.92604 -0.92604 h 0.92604 0.92604 v -1.85208 -1.85209 h 0.92604 0.92604 v 0.92604 0.92605 h 1.85209 1.85208 v 0.92604 0.92604 h 1.05833 1.05834 v 0.92604 0.92604 h -1.05834 -1.05833 v -0.92604 -0.92604 h -1.85208 -1.85209 v 2.77812 2.77813 h 1.85209 1.85208 v -0.92604 -0.92604 h 1.05833 1.05834 v 0.92604 0.92604 h -1.05834 -1.05833 v 0.92604 0.92604 h -7.40833 -7.408335 z m 9.260415,-1.85208 v -0.92604 h -1.85208 -1.85209 v 0.92604 0.92604 h 1.85209 1.85208 z"
         id="path235" /><path
         style="fill:#74747f;stroke-width:0.264583"
         d="m 48.197065,230.02749 v -0.92604 h -0.926041 -0.926042 v -6.61458 -6.61459 h 0.926042 0.926041 v 6.61459 6.61458 h 15.081252 15.08125 v -6.61458 -6.61459 h 0.92604 0.92604 v 6.61459 6.61458 h -0.92604 -0.92604 v 0.92604 0.92604 H 63.278317 48.197065 Z m 1.852083,-3.70417 v -0.92604 h 0.926042 0.926042 v 0.92604 0.92605 H 50.97519 50.049148 Z m 24.606249,0 v -0.92604 h 0.92604 0.92604 v 0.92604 0.92605 h -0.92604 -0.92604 z"
         id="path233" /><path
         style="fill:#8c7067;stroke-width:0.264583"
         d="m 55.869982,207.40562 v -1.05834 h 0.926041 0.926042 v -0.92604 -0.92604 h 0.926042 0.92604 v 0.92604 0.92604 h -0.92604 -0.926042 v 1.05834 1.05833 h -0.926042 -0.926041 z m 12.964585,0 v -1.05834 h -0.92604 -0.92605 v -0.92604 -0.92604 h 0.92605 0.92604 v 0.92604 0.92604 h 0.92604 0.92604 v 1.05834 1.05833 h -0.92604 -0.92604 z"
         id="path231" /><path
         style="fill:#be6033;stroke-width:0.264583"
         d="m 55.869982,222.48687 v -1.05834 h 1.852083 1.852082 v 1.05834 1.05833 h -1.852082 -1.852083 z m 11.112495,0 v -1.05834 h 1.85209 1.85208 v 1.05834 1.05833 h -1.85208 -1.85209 z m -5.55625,-3.83646 v -0.92604 h 1.85209 1.85208 v 0.92604 0.92604 h -1.85208 -1.85209 z m -7.672912,-1.85209 v -0.92604 h -0.926042 -0.926041 v -0.92604 -0.92604 h 0.926041 0.926042 v -0.92604 -0.92604 h 1.058333 1.058334 v -0.92605 -0.92604 h 1.852083 1.852082 v 0.92604 0.92605 h -1.852082 -1.852083 v 0.92604 0.92604 h -1.058334 -1.058333 v 0.92604 0.92604 h 1.058333 1.058334 v 0.92604 0.92605 h -1.058334 -1.058333 z m 16.933332,0 v -0.92604 h 1.05833 1.05834 v -0.92604 -0.92604 h -1.05834 -1.05833 v -0.92604 -0.92604 h -1.85208 -1.85209 v -0.92605 -0.92604 h 1.85209 1.85208 v 0.92604 0.92605 h 1.05833 1.05834 v 0.92604 0.92604 h 0.92604 0.92604 v 0.92604 0.92604 h -0.92604 -0.92604 v 0.92604 0.92605 h -1.05834 -1.05833 z m -9.26042,-7.40833 v -0.92604 h 1.85209 1.85208 v 0.92604 0.92604 h -1.85208 -1.85209 z"
         id="path229" /><path
         style="fill:#a34d36;stroke-width:0.264583"
         d="m 59.574147,226.32332 v -0.92604 h -1.852082 -1.852083 v -0.92604 -0.92604 h -1.058334 -1.058333 v -1.98438 -1.98437 h -0.926042 -0.926041 v -0.92604 -0.92604 h 0.926041 0.926042 v 0.92604 0.92604 h 1.058333 1.058334 v 1.98437 1.98438 h 1.852083 1.852082 v 0.92604 0.92604 h 3.70417 3.70416 v -0.92604 -0.92604 h 1.85209 1.85208 v -1.98438 -1.98437 h 1.05833 1.05834 v -0.92604 -0.92604 h 0.92604 0.92604 v 0.92604 0.92604 h -0.92604 -0.92604 v 1.98437 1.98438 h -1.05834 -1.05833 v 0.92604 0.92604 h -1.85208 -1.85209 v 0.92604 0.92605 h -3.70416 -3.70417 z m -5.820832,-16.00729 v -1.85208 h 1.058333 1.058334 v 1.85208 1.85209 h -1.058334 -1.058333 z m 16.933332,0 v -1.85208 h 1.05833 1.05834 v 1.85208 1.85209 h -1.05834 -1.05833 z m -11.1125,-0.92604 v -0.92604 h 0.92604 0.92604 v -1.05833 -1.05834 h 1.85209 1.85208 v 1.05834 1.05833 h 0.92604 0.92604 v 0.92604 0.92604 h -0.92604 -0.92604 v -0.92604 -0.92604 h -1.85208 -1.85209 v 0.92604 0.92604 h -0.92604 -0.92604 z"
         id="path227" /><path
         style="fill:#65524c;stroke-width:0.264583"
         d="m 55.869982,209.38999 v -0.92604 h -1.058334 -1.058333 v -1.05833 -1.05834 h 1.058333 1.058334 v -0.92604 -0.92604 h 0.926041 0.926042 v -0.92604 -0.92604 h 1.852082 1.85208 v 2.91041 2.91042 h -0.92604 -0.92604 v -1.98438 -1.98437 h -0.92604 -0.926042 v 0.92604 0.92604 h -0.926042 -0.926041 v 1.05834 1.05833 h 0.926041 0.926042 v 0.92604 0.92604 h -0.926042 -0.926041 z m 12.964585,0 v -0.92604 h 0.92604 0.92604 v -1.05833 -1.05834 h -0.92604 -0.92604 v -0.92604 -0.92604 h -0.92604 -0.92605 v 1.98437 1.98438 h -0.92604 -0.92604 v -2.91042 -2.91041 h 1.85208 1.85209 v 0.92604 0.92604 h 0.92604 0.92604 v 0.92604 0.92604 h 1.05833 1.05834 v 1.05834 1.05833 h -1.05834 -1.05833 v 0.92604 0.92604 h -0.92604 -0.92604 z"
         id="path225" /><path
         style="fill:#252932;stroke-width:0.264583"
         d="m 57.722065,216.79832 v -0.92604 h 0.926042 0.92604 v 0.92604 0.92605 h -0.92604 -0.926042 z m 9.260412,0 v -0.92604 h 0.92605 0.92604 v 0.92604 0.92605 h -0.92604 -0.92605 z"
         id="path223" /><path
         style="fill:#121419;stroke-width:0.264583"
         d="m 61.426227,222.48687 v -1.05834 h 1.85209 1.85208 v 1.05834 1.05833 h -1.85208 -1.85209 z m -3.704162,-3.83646 v -0.92604 h 0.926042 0.92604 v 0.92604 0.92604 h -0.92604 -0.926042 z m 9.260412,0 v -0.92604 h 0.92605 0.92604 v 0.92604 0.92604 h -0.92604 -0.92605 z"
         id="path221" /></g></g></svg>
